<?xml version="1.0" encoding="UTF-8" standalone="no"?>
<svg 
   width="130.080002pt"
   height="67.919998pt"
   viewBox="0 0 130.080002 67.919998"
   version="1.1"
   id="svg74"
   xmlns="http://www.w3.org/2000/svg"
   xmlns:svg="http://www.w3.org/2000/svg" content="%3Cmxfile%20host%3D%22app.diagrams.net%22%20modified%3D%222023-06-17T17%3A13%3A15.087Z%22%20agent%3D%22Mozilla%2F5.0%20(X11%3B%20Linux%20x86_64)%20AppleWebKit%2F537.36%20(KHTML%2C%20like%20Gecko)%20Chrome%2F108.0.0.0%20Safari%2F537.36%22%20etag%3D%22iA9Cvldt4IBCQUwUN1ZP%22%20version%3D%2221.4.0%22%20type%3D%22google%22%3E%20%20%20%3Cdiagram%20id%3D%22C5RBs43oDa-KdzZeNtuy%22%20name%3D%22Page-1%22%3E%20%20%20%20%20%3CmxGraphModel%20dx%3D%221434%22%20dy%3D%22807%22%20grid%3D%221%22%20gridSize%3D%2210%22%20guides%3D%221%22%20tooltips%3D%221%22%20connect%3D%221%22%20arrows%3D%221%22%20fold%3D%221%22%20page%3D%220%22%20pageScale%3D%221%22%20pageWidth%3D%22827%22%20pageHeight%3D%221169%22%20math%3D%220%22%20shadow%3D%220%22%3E%20%20%20%20%20%20%20%3Croot%3E%20%20%20%20%20%20%20%20%20%3CmxCell%20id%3D%22WIyWlLk6GJQsqaUBKTNV-0%22%20%2F%3E%20%20%20%20%20%20%20%20%20%3CmxCell%20id%3D%22WIyWlLk6GJQsqaUBKTNV-1%22%20parent%3D%22WIyWlLk6GJQsqaUBKTNV-0%22%20%2F%3E%20%20%20%20%20%20%20%20%20%3CmxCell%20id%3D%22Xxw-EVC1ZUE2S49bsoXF-19%22%20value%3D%22%22%20style%3D%22group%22%20parent%3D%22WIyWlLk6GJQsqaUBKTNV-1%22%20connectable%3D%220%22%20vertex%3D%221%22%3E%20%20%20%20%20%20%20%20%20%20%20%3CmxGeometry%20x%3D%22280%22%20y%3D%22290%22%20width%3D%22170%22%20height%3D%2285%22%20as%3D%22geometry%22%20%2F%3E%20%20%20%20%20%20%20%20%20%3C%2FmxCell%3E%20%20%20%20%20%20%20%20%20%3CmxCell%20id%3D%22Xxw-EVC1ZUE2S49bsoXF-2%22%20value%3D%22%22%20style%3D%22endArrow%3Dnone%3Bhtml%3D1%3Brounded%3D0%3BstrokeWidth%3D3%3BfillColor%3D%23d5e8d4%3BstrokeColor%3D%2382b366%3B%22%20parent%3D%22Xxw-EVC1ZUE2S49bsoXF-19%22%20edge%3D%221%22%3E%20%20%20%20%20%20%20%20%20%20%20%3CmxGeometry%20width%3D%2250%22%20height%3D%2250%22%20relative%3D%221%22%20as%3D%22geometry%22%3E%20%20%20%20%20%20%20%20%20%20%20%20%20%3CmxPoint%20x%3D%2248.57142857142857%22%20y%3D%2212.142857142857142%22%20as%3D%22sourcePoint%22%20%2F%3E%20%20%20%20%20%20%20%20%20%20%20%20%20%3CmxPoint%20x%3D%22121.42857142857142%22%20y%3D%2212.142857142857142%22%20as%3D%22targetPoint%22%20%2F%3E%20%20%20%20%20%20%20%20%20%20%20%3C%2FmxGeometry%3E%20%20%20%20%20%20%20%20%20%3C%2FmxCell%3E%20%20%20%20%20%20%20%20%20%3CmxCell%20id%3D%22Xxw-EVC1ZUE2S49bsoXF-3%22%20value%3D%22%22%20style%3D%22endArrow%3Dnone%3Bhtml%3D1%3Brounded%3D0%3BstrokeWidth%3D3%3BfillColor%3D%23d5e8d4%3BstrokeColor%3D%2382b366%3B%22%20parent%3D%22Xxw-EVC1ZUE2S49bsoXF-19%22%20target%3D%22Xxw-EVC1ZUE2S49bsoXF-0%22%20edge%3D%221%22%3E%20%20%20%20%20%20%20%20%20%20%20%3CmxGeometry%20width%3D%2250%22%20height%3D%2250%22%20relative%3D%221%22%20as%3D%22geometry%22%3E%20%20%20%20%20%20%20%20%20%20%20%20%20%3CmxPoint%20x%3D%22121.42857142857142%22%20y%3D%2212.142857142857142%22%20as%3D%22sourcePoint%22%20%2F%3E%20%20%20%20%20%20%20%20%20%20%20%20%20%3CmxPoint%20x%3D%22121.42857142857142%22%20y%3D%2230.357142857142854%22%20as%3D%22targetPoint%22%20%2F%3E%20%20%20%20%20%20%20%20%20%20%20%3C%2FmxGeometry%3E%20%20%20%20%20%20%20%20%20%3C%2FmxCell%3E%20%20%20%20%20%20%20%20%20%3CmxCell%20id%3D%22Xxw-EVC1ZUE2S49bsoXF-4%22%20value%3D%22%22%20style%3D%22endArrow%3Dnone%3Bhtml%3D1%3Brounded%3D0%3BexitX%3D0.5%3BexitY%3D0%3BexitDx%3D0%3BexitDy%3D0%3BstrokeWidth%3D3%3BfillColor%3D%23d5e8d4%3BstrokeColor%3D%2382b366%3B%22%20parent%3D%22Xxw-EVC1ZUE2S49bsoXF-19%22%20source%3D%22Xxw-EVC1ZUE2S49bsoXF-1%22%20edge%3D%221%22%3E%20%20%20%20%20%20%20%20%20%20%20%3CmxGeometry%20width%3D%2250%22%20height%3D%2250%22%20relative%3D%221%22%20as%3D%22geometry%22%3E%20%20%20%20%20%20%20%20%20%20%20%20%20%3CmxPoint%20x%3D%2291.07142857142857%22%20y%3D%2260.71428571428571%22%20as%3D%22sourcePoint%22%20%2F%3E%20%20%20%20%20%20%20%20%20%20%20%20%20%3CmxPoint%20x%3D%2248.57142857142857%22%20y%3D%2212.142857142857142%22%20as%3D%22targetPoint%22%20%2F%3E%20%20%20%20%20%20%20%20%20%20%20%3C%2FmxGeometry%3E%20%20%20%20%20%20%20%20%20%3C%2FmxCell%3E%20%20%20%20%20%20%20%20%20%3CmxCell%20id%3D%22Xxw-EVC1ZUE2S49bsoXF-5%22%20value%3D%22%22%20style%3D%22endArrow%3Dnone%3Bhtml%3D1%3Brounded%3D0%3BstrokeWidth%3D3%3BfillColor%3D%23d5e8d4%3BstrokeColor%3D%2382b366%3B%22%20parent%3D%22Xxw-EVC1ZUE2S49bsoXF-19%22%20edge%3D%221%22%3E%20%20%20%20%20%20%20%20%20%20%20%3CmxGeometry%20width%3D%2250%22%20height%3D%2250%22%20relative%3D%221%22%20as%3D%22geometry%22%3E%20%20%20%20%20%20%20%20%20%20%20%20%20%3CmxPoint%20x%3D%2266.78571428571428%22%20y%3D%2260.71428571428571%22%20as%3D%22sourcePoint%22%20%2F%3E%20%20%20%20%20%20%20%20%20%20%20%20%20%3CmxPoint%20x%3D%22121.42857142857142%22%20y%3D%2212.142857142857142%22%20as%3D%22targetPoint%22%20%2F%3E%20%20%20%20%20%20%20%20%20%20%20%3C%2FmxGeometry%3E%20%20%20%20%20%20%20%20%20%3C%2FmxCell%3E%20%20%20%20%20%20%20%20%20%3CmxCell%20id%3D%22Xxw-EVC1ZUE2S49bsoXF-6%22%20value%3D%22%22%20style%3D%22endArrow%3Dnone%3Bhtml%3D1%3Brounded%3D0%3BstrokeWidth%3D3%3BfillColor%3D%23d5e8d4%3BstrokeColor%3D%2382b366%3B%22%20parent%3D%22Xxw-EVC1ZUE2S49bsoXF-19%22%20edge%3D%221%22%3E%20%20%20%20%20%20%20%20%20%20%20%3CmxGeometry%20width%3D%2250%22%20height%3D%2250%22%20relative%3D%221%22%20as%3D%22geometry%22%3E%20%20%20%20%20%20%20%20%20%20%20%20%20%3CmxPoint%20x%3D%2266.78571428571428%22%20y%3D%2260.71428571428571%22%20as%3D%22sourcePoint%22%20%2F%3E%20%20%20%20%20%20%20%20%20%20%20%20%20%3CmxPoint%20x%3D%2248.57142857142857%22%20y%3D%2212.142857142857142%22%20as%3D%22targetPoint%22%20%2F%3E%20%20%20%20%20%20%20%20%20%20%20%3C%2FmxGeometry%3E%20%20%20%20%20%20%20%20%20%3C%2FmxCell%3E%20%20%20%20%20%20%20%20%20%3CmxCell%20id%3D%22Xxw-EVC1ZUE2S49bsoXF-7%22%20value%3D%22%22%20style%3D%22endArrow%3Dnone%3Bhtml%3D1%3Brounded%3D0%3B%22%20parent%3D%22Xxw-EVC1ZUE2S49bsoXF-19%22%20edge%3D%221%22%3E%20%20%20%20%20%20%20%20%20%20%20%3CmxGeometry%20width%3D%2250%22%20height%3D%2250%22%20relative%3D%221%22%20as%3D%22geometry%22%3E%20%20%20%20%20%20%20%20%20%20%20%20%20%3CmxPoint%20x%3D%22115.35714285714285%22%20as%3D%22sourcePoint%22%20%2F%3E%20%20%20%20%20%20%20%20%20%20%20%20%20%3CmxPoint%20x%3D%22121.42857142857142%22%20y%3D%2212.142857142857142%22%20as%3D%22targetPoint%22%20%2F%3E%20%20%20%20%20%20%20%20%20%20%20%3C%2FmxGeometry%3E%20%20%20%20%20%20%20%20%20%3C%2FmxCell%3E%20%20%20%20%20%20%20%20%20%3CmxCell%20id%3D%22Xxw-EVC1ZUE2S49bsoXF-8%22%20value%3D%22%22%20style%3D%22endArrow%3Dnone%3Bhtml%3D1%3Brounded%3D0%3B%22%20parent%3D%22Xxw-EVC1ZUE2S49bsoXF-19%22%20edge%3D%221%22%3E%20%20%20%20%20%20%20%20%20%20%20%3CmxGeometry%20width%3D%2250%22%20height%3D%2250%22%20relative%3D%221%22%20as%3D%22geometry%22%3E%20%20%20%20%20%20%20%20%20%20%20%20%20%3CmxPoint%20x%3D%22103.21428571428571%22%20as%3D%22sourcePoint%22%20%2F%3E%20%20%20%20%20%20%20%20%20%20%20%20%20%3CmxPoint%20x%3D%22115.35714285714285%22%20as%3D%22targetPoint%22%20%2F%3E%20%20%20%20%20%20%20%20%20%20%20%3C%2FmxGeometry%3E%20%20%20%20%20%20%20%20%20%3C%2FmxCell%3E%20%20%20%20%20%20%20%20%20%3CmxCell%20id%3D%22Xxw-EVC1ZUE2S49bsoXF-9%22%20value%3D%22%22%20style%3D%22endArrow%3Dnone%3Bhtml%3D1%3Brounded%3D0%3B%22%20parent%3D%22Xxw-EVC1ZUE2S49bsoXF-19%22%20edge%3D%221%22%3E%20%20%20%20%20%20%20%20%20%20%20%3CmxGeometry%20width%3D%2250%22%20height%3D%2250%22%20relative%3D%221%22%20as%3D%22geometry%22%3E%20%20%20%20%20%20%20%20%20%20%20%20%20%3CmxPoint%20x%3D%2248.57142857142857%22%20y%3D%2212.142857142857142%22%20as%3D%22sourcePoint%22%20%2F%3E%20%20%20%20%20%20%20%20%20%20%20%20%20%3CmxPoint%20x%3D%2248.57142857142857%22%20y%3D%226.071428571428571%22%20as%3D%22targetPoint%22%20%2F%3E%20%20%20%20%20%20%20%20%20%20%20%3C%2FmxGeometry%3E%20%20%20%20%20%20%20%20%20%3C%2FmxCell%3E%20%20%20%20%20%20%20%20%20%3CmxCell%20id%3D%22Xxw-EVC1ZUE2S49bsoXF-10%22%20value%3D%22%22%20style%3D%22endArrow%3Dnone%3Bhtml%3D1%3Brounded%3D0%3BstrokeWidth%3D3%3BfillColor%3D%23d5e8d4%3BstrokeColor%3D%2382b366%3B%22%20parent%3D%22Xxw-EVC1ZUE2S49bsoXF-19%22%20target%3D%22Xxw-EVC1ZUE2S49bsoXF-1%22%20edge%3D%221%22%3E%20%20%20%20%20%20%20%20%20%20%20%3CmxGeometry%20width%3D%2250%22%20height%3D%2250%22%20relative%3D%221%22%20as%3D%22geometry%22%3E%20%20%20%20%20%20%20%20%20%20%20%20%20%3CmxPoint%20x%3D%2266.78571428571428%22%20y%3D%2260.71428571428571%22%20as%3D%22sourcePoint%22%20%2F%3E%20%20%20%20%20%20%20%20%20%20%20%20%20%3CmxPoint%20x%3D%22121.42857142857142%22%20y%3D%2230.357142857142854%22%20as%3D%22targetPoint%22%20%2F%3E%20%20%20%20%20%20%20%20%20%20%20%3C%2FmxGeometry%3E%20%20%20%20%20%20%20%20%20%3C%2FmxCell%3E%20%20%20%20%20%20%20%20%20%3CmxCell%20id%3D%22Xxw-EVC1ZUE2S49bsoXF-11%22%20value%3D%22%22%20style%3D%22endArrow%3Dnone%3Bhtml%3D1%3Brounded%3D0%3B%22%20parent%3D%22Xxw-EVC1ZUE2S49bsoXF-19%22%20edge%3D%221%22%3E%20%20%20%20%20%20%20%20%20%20%20%3CmxGeometry%20width%3D%2250%22%20height%3D%2250%22%20relative%3D%221%22%20as%3D%22geometry%22%3E%20%20%20%20%20%20%20%20%20%20%20%20%20%3CmxPoint%20x%3D%2242.5%22%20y%3D%226.071428571428571%22%20as%3D%22sourcePoint%22%20%2F%3E%20%20%20%20%20%20%20%20%20%20%20%20%20%3CmxPoint%20x%3D%2254.64285714285714%22%20y%3D%226.071428571428571%22%20as%3D%22targetPoint%22%20%2F%3E%20%20%20%20%20%20%20%20%20%20%20%3C%2FmxGeometry%3E%20%20%20%20%20%20%20%20%20%3C%2FmxCell%3E%20%20%20%20%20%20%20%20%20%3CmxCell%20id%3D%22Xxw-EVC1ZUE2S49bsoXF-12%22%20value%3D%22%22%20style%3D%22ellipse%3BwhiteSpace%3Dwrap%3Bhtml%3D1%3Baspect%3Dfixed%3BfillColor%3Dnone%3B%22%20parent%3D%22Xxw-EVC1ZUE2S49bsoXF-19%22%20vertex%3D%221%22%3E%20%20%20%20%20%20%20%20%20%20%20%3CmxGeometry%20x%3D%2260.71428571428571%22%20y%3D%2254.64285714285714%22%20width%3D%2212.142857142857142%22%20height%3D%2212.142857142857142%22%20as%3D%22geometry%22%20%2F%3E%20%20%20%20%20%20%20%20%20%3C%2FmxCell%3E%20%20%20%20%20%20%20%20%20%3CmxCell%20id%3D%22Xxw-EVC1ZUE2S49bsoXF-17%22%20value%3D%22%22%20style%3D%22group%22%20parent%3D%22Xxw-EVC1ZUE2S49bsoXF-19%22%20connectable%3D%220%22%20vertex%3D%221%22%3E%20%20%20%20%20%20%20%20%20%20%20%3CmxGeometry%20x%3D%22121.42857142857142%22%20y%3D%2236.42857142857142%22%20width%3D%2248.57142857142857%22%20height%3D%2248.57142857142857%22%20as%3D%22geometry%22%20%2F%3E%20%20%20%20%20%20%20%20%20%3C%2FmxCell%3E%20%20%20%20%20%20%20%20%20%3CmxCell%20id%3D%22Xxw-EVC1ZUE2S49bsoXF-0%22%20value%3D%22%22%20style%3D%22ellipse%3BwhiteSpace%3Dwrap%3Bhtml%3D1%3Baspect%3Dfixed%3BfillColor%3Dnone%3B%22%20parent%3D%22Xxw-EVC1ZUE2S49bsoXF-17%22%20vertex%3D%221%22%3E%20%20%20%20%20%20%20%20%20%20%20%3CmxGeometry%20width%3D%2248.57142857142857%22%20height%3D%2248.57142857142857%22%20as%3D%22geometry%22%20%2F%3E%20%20%20%20%20%20%20%20%20%3C%2FmxCell%3E%20%20%20%20%20%20%20%20%20%3CmxCell%20id%3D%22Xxw-EVC1ZUE2S49bsoXF-15%22%20value%3D%22%22%20style%3D%22ellipse%3BwhiteSpace%3Dwrap%3Bhtml%3D1%3Baspect%3Dfixed%3BfillColor%3Dnone%3B%22%20parent%3D%22Xxw-EVC1ZUE2S49bsoXF-17%22%20vertex%3D%221%22%3E%20%20%20%20%20%20%20%20%20%20%20%3CmxGeometry%20x%3D%223.7946428571428568%22%20y%3D%223.7946428571428568%22%20width%3D%2240.982142857142854%22%20height%3D%2240.982142857142854%22%20as%3D%22geometry%22%20%2F%3E%20%20%20%20%20%20%20%20%20%3C%2FmxCell%3E%20%20%20%20%20%20%20%20%20%3CmxCell%20id%3D%22Xxw-EVC1ZUE2S49bsoXF-18%22%20value%3D%22%22%20style%3D%22group%22%20parent%3D%22Xxw-EVC1ZUE2S49bsoXF-19%22%20connectable%3D%220%22%20vertex%3D%221%22%3E%20%20%20%20%20%20%20%20%20%20%20%3CmxGeometry%20y%3D%2236.42857142857142%22%20width%3D%2248.57142857142857%22%20height%3D%2248.57142857142857%22%20as%3D%22geometry%22%20%2F%3E%20%20%20%20%20%20%20%20%20%3C%2FmxCell%3E%20%20%20%20%20%20%20%20%20%3CmxCell%20id%3D%22Xxw-EVC1ZUE2S49bsoXF-1%22%20value%3D%22%22%20style%3D%22ellipse%3BwhiteSpace%3Dwrap%3Bhtml%3D1%3Baspect%3Dfixed%3BfillColor%3Dnone%3B%22%20parent%3D%22Xxw-EVC1ZUE2S49bsoXF-18%22%20vertex%3D%221%22%3E%20%20%20%20%20%20%20%20%20%20%20%3CmxGeometry%20width%3D%2248.57142857142857%22%20height%3D%2248.57142857142857%22%20as%3D%22geometry%22%20%2F%3E%20%20%20%20%20%20%20%20%20%3C%2FmxCell%3E%20%20%20%20%20%20%20%20%20%3CmxCell%20id%3D%22Xxw-EVC1ZUE2S49bsoXF-16%22%20value%3D%22%22%20style%3D%22ellipse%3BwhiteSpace%3Dwrap%3Bhtml%3D1%3Baspect%3Dfixed%3BfillColor%3Dnone%3B%22%20parent%3D%22Xxw-EVC1ZUE2S49bsoXF-18%22%20vertex%3D%221%22%3E%20%20%20%20%20%20%20%20%20%20%20%3CmxGeometry%20x%3D%223.7946428571428568%22%20y%3D%223.7946428571428568%22%20width%3D%2240.982142857142854%22%20height%3D%2240.982142857142854%22%20as%3D%22geometry%22%20%2F%3E%20%20%20%20%20%20%20%20%20%3C%2FmxCell%3E%20%20%20%20%20%20%20%3C%2Froot%3E%20%20%20%20%20%3C%2FmxGraphModel%3E%20%20%20%3C%2Fdiagram%3E%20%3C%2Fmxfile%3E%20">
  <defs
     id="defs26">
    <clipPath
       id="clip-0">
      <path
         clip-rule="nonzero"
         d="M 60 0 L 130 0 L 130 63 L 60 63 Z M 60 0 "
         id="path2" />
    </clipPath>
    <clipPath
       id="clip-1">
      <path
         clip-rule="nonzero"
         d="M 19 0 L 125 0 L 125 66.878906 L 19 66.878906 Z M 19 0 "
         id="path5" />
    </clipPath>
    <clipPath
       id="clip-2">
      <path
         clip-rule="nonzero"
         d="M 5 0 L 84 0 L 84 66.878906 L 5 66.878906 Z M 5 0 "
         id="path8" />
    </clipPath>
    <clipPath
       id="clip-3">
      <path
         clip-rule="nonzero"
         d="M 5 11 L 84 11 L 84 66.878906 L 5 66.878906 Z M 5 11 "
         id="path11" />
    </clipPath>
    <clipPath
       id="clip-4">
      <path
         clip-rule="nonzero"
         d="M 88 24 L 130 24 L 130 66.878906 L 88 66.878906 Z M 88 24 "
         id="path14" />
    </clipPath>
    <clipPath
       id="clip-5">
      <path
         clip-rule="nonzero"
         d="M 90 27 L 130 27 L 130 66.878906 L 90 66.878906 Z M 90 27 "
         id="path17" />
    </clipPath>
    <clipPath
       id="clip-6">
      <path
         clip-rule="nonzero"
         d="M 0 24 L 42 24 L 42 66.878906 L 0 66.878906 Z M 0 24 "
         id="path20" />
    </clipPath>
    <clipPath
       id="clip-7">
      <path
         clip-rule="nonzero"
         d="M 0 27 L 40 27 L 40 66.878906 L 0 66.878906 Z M 0 27 "
         id="path23" />
    </clipPath>
  </defs>
  <path
     fill="none"
     stroke-width="3"
     stroke-linecap="butt"
     stroke-linejoin="miter"
     stroke="rgb(50.979614%, 70.199585%, 39.99939%)"
     stroke-opacity="1"
     stroke-miterlimit="10"
     d="M 49.570193 13.140385 L 122.429809 13.140385 "
     transform="matrix(0.751445, 0, 0, 0.751445, 0.375723, 0.375723)"
     id="path28" />
  <g
     clip-path="url(#clip-0)"
     id="g32">
    <path
       fill="none"
       stroke-width="3"
       stroke-linecap="butt"
       stroke-linejoin="miter"
       stroke="#82b366"
       stroke-opacity="1"
       stroke-miterlimit="10"
       d="m 122.42981,13.140385 13.42205,26.849309"
       transform="matrix(0.751445,0,0,0.751445,0.375723,0.375723)"
       id="path30" />
  </g>
  <path
     fill="none"
     stroke-width="3"
     stroke-linecap="butt"
     stroke-linejoin="miter"
     stroke="rgb(50.979614%, 70.199585%, 39.99939%)"
     stroke-opacity="1"
     stroke-miterlimit="10"
     d="M 25.288852 37.432122 L 49.570193 13.140385 "
     transform="matrix(0.751445, 0, 0, 0.751445, 0.375723, 0.375723)"
     id="path34" />
  <g
     clip-path="url(#clip-1)"
     id="g38">
    <path
       fill="none"
       stroke-width="3"
       stroke-linecap="butt"
       stroke-linejoin="miter"
       stroke="#82b366"
       stroke-opacity="1"
       stroke-miterlimit="10"
       d="M 67.790295,61.708264 122.42981,13.140385"
       transform="matrix(0.751445,0,0,0.751445,0.375723,0.375723)"
       id="path36" />
  </g>
  <g
     clip-path="url(#clip-2)"
     id="g42">
    <path
       fill="none"
       stroke-width="3"
       stroke-linecap="butt"
       stroke-linejoin="miter"
       stroke="#82b366"
       stroke-opacity="1"
       stroke-miterlimit="10"
       d="M 67.790295,61.708264 49.570193,13.140385"
       transform="matrix(0.751445,0,0,0.751445,0.375723,0.375723)"
       id="path40" />
  </g>
  <path
     fill="none"
     stroke-width="1"
     stroke-linecap="butt"
     stroke-linejoin="miter"
     stroke="rgb(0%, 0%, 0%)"
     stroke-opacity="1"
     stroke-miterlimit="10"
     d="M 116.358174 1.002314 L 122.429809 13.140385 "
     transform="matrix(0.751445, 0, 0, 0.751445, 0.375723, 0.375723)"
     id="path44" />
  <path
     fill="none"
     stroke-width="1"
     stroke-linecap="butt"
     stroke-linejoin="miter"
     stroke="rgb(0%, 0%, 0%)"
     stroke-opacity="1"
     stroke-miterlimit="10"
     d="M 104.209706 1.002314 L 116.358174 1.002314 "
     transform="matrix(0.751445, 0, 0, 0.751445, 0.375723, 0.375723)"
     id="path46" />
  <path
     fill="none"
     stroke-width="1"
     stroke-linecap="butt"
     stroke-linejoin="miter"
     stroke="rgb(0%, 0%, 0%)"
     stroke-opacity="1"
     stroke-miterlimit="10"
     d="M 49.570193 13.140385 L 49.570193 7.06875 "
     transform="matrix(0.751445, 0, 0, 0.751445, 0.375723, 0.375723)"
     id="path48" />
  <g
     clip-path="url(#clip-3)"
     id="g52">
    <path
       fill="none"
       stroke-width="3"
       stroke-linecap="butt"
       stroke-linejoin="miter"
       stroke="#82b366"
       stroke-opacity="1"
       stroke-miterlimit="10"
       d="M 67.790295,61.708264 49.2375,57.721154"
       transform="matrix(0.751445,0,0,0.751445,0.375723,0.375723)"
       id="path50" />
  </g>
  <path
     fill="none"
     stroke-width="1"
     stroke-linecap="butt"
     stroke-linejoin="miter"
     stroke="rgb(0%, 0%, 0%)"
     stroke-opacity="1"
     stroke-miterlimit="10"
     d="M 43.498558 7.06875 L 55.641827 7.06875 "
     transform="matrix(0.751445, 0, 0, 0.751445, 0.375723, 0.375723)"
     id="path54" />
  <path
     fill="none"
     stroke-width="1"
     stroke-linecap="butt"
     stroke-linejoin="miter"
     stroke="rgb(0%, 0%, 0%)"
     stroke-opacity="1"
     stroke-miterlimit="4"
     d="M 73.86193 61.708264 C 73.86193 62.108534 73.820343 62.503606 73.742368 62.89348 C 73.664394 63.283354 73.550031 63.662831 73.399279 64.031912 C 73.248528 64.400992 73.061389 64.749279 72.837861 65.081972 C 72.614334 65.414664 72.364814 65.721365 72.084105 66.002074 C 71.803396 66.282783 71.496695 66.537501 71.164003 66.75583 C 70.831311 66.979358 70.483023 67.166497 70.113943 67.317248 C 69.744862 67.473198 69.365385 67.587561 68.975511 67.665535 C 68.585638 67.74351 68.190565 67.779898 67.790295 67.779898 C 67.390025 67.779898 66.994952 67.74351 66.605079 67.665535 C 66.215205 67.587561 65.835728 67.473198 65.466647 67.317248 C 65.097567 67.166497 64.749279 66.979358 64.416587 66.75583 C 64.083895 66.537501 63.777194 66.282783 63.496485 66.002074 C 63.215776 65.721365 62.961058 65.414664 62.742729 65.081972 C 62.519201 64.749279 62.332062 64.400992 62.181311 64.031912 C 62.030559 63.662831 61.910998 63.283354 61.833023 62.89348 C 61.755049 62.503606 61.71866 62.108534 61.71866 61.708264 C 61.71866 61.313192 61.755049 60.918119 61.833023 60.523047 C 61.910998 60.133174 62.030559 59.753696 62.181311 59.384616 C 62.332062 59.020734 62.519201 58.667248 62.742729 58.334556 C 62.961058 58.007062 63.215776 57.700361 63.496485 57.414454 C 63.777194 57.133744 64.083895 56.884225 64.416587 56.660698 C 64.749279 56.442368 65.097567 56.255229 65.466647 56.099279 C 65.835728 55.948528 66.215205 55.834165 66.605079 55.75619 C 66.994952 55.678216 67.390025 55.636629 67.790295 55.636629 C 68.190565 55.636629 68.585638 55.678216 68.975511 55.75619 C 69.365385 55.834165 69.744862 55.948528 70.113943 56.099279 C 70.483023 56.255229 70.831311 56.442368 71.164003 56.660698 C 71.496695 56.884225 71.803396 57.133744 72.084105 57.414454 C 72.364814 57.700361 72.614334 58.007062 72.837861 58.334556 C 73.061389 58.667248 73.248528 59.020734 73.399279 59.384616 C 73.550031 59.753696 73.664394 60.133174 73.742368 60.523047 C 73.820343 60.918119 73.86193 61.313192 73.86193 61.708264 Z M 73.86193 61.708264 "
     transform="matrix(0.751445, 0, 0, 0.751445, 0.375723, 0.375723)"
     id="path56" />
  <g
     clip-path="url(#clip-4)"
     id="g60">
    <path
       fill="none"
       stroke-width="1"
       stroke-linecap="butt"
       stroke-linejoin="miter"
       stroke="#000000"
       stroke-opacity="1"
       stroke-miterlimit="4"
       d="m 170.99769,61.708264 c 0,0.795342 -0.0416,1.590685 -0.11956,2.380829 -0.078,0.795343 -0.19234,1.580289 -0.34829,2.360036 -0.15595,0.779748 -0.34829,1.549099 -0.58221,2.308053 -0.22873,0.764153 -0.49384,1.51271 -0.80054,2.245673 -0.3067,0.738161 -0.6446,1.455529 -1.01887,2.157302 -0.37428,0.701773 -0.78495,1.382752 -1.22681,2.042939 -0.44185,0.660186 -0.9149,1.299579 -1.41914,1.91298 -0.50423,0.613402 -1.03966,1.20601 -1.60108,1.767428 -0.56142,0.561419 -1.14883,1.096845 -1.76223,1.601082 -0.6186,0.504237 -1.25279,0.977284 -1.91818,1.419141 -0.66018,0.441857 -1.34116,0.847325 -2.04294,1.226803 -0.70177,0.374278 -1.41914,0.712169 -2.1521,1.01887 -0.73816,0.301502 -1.48672,0.571815 -2.24567,0.800541 -0.75896,0.228726 -1.53351,0.426262 -2.31325,0.577013 -0.77975,0.155949 -1.5647,0.275511 -2.35484,0.353485 -0.79534,0.07798 -1.58549,0.114363 -2.38083,0.114363 -0.79534,0 -1.59069,-0.03639 -2.38083,-0.114363 -0.79015,-0.07797 -1.58029,-0.197536 -2.36004,-0.353485 -0.77974,-0.150751 -1.5491,-0.348287 -2.30805,-0.577013 -0.76415,-0.228726 -1.51271,-0.499039 -2.24567,-0.800541 -0.73297,-0.306701 -1.45553,-0.644592 -2.1573,-1.01887 -0.69658,-0.379478 -1.38276,-0.784946 -2.04294,-1.226803 -0.66019,-0.441857 -1.29958,-0.914904 -1.91298,-1.419141 -0.61341,-0.504237 -1.20601,-1.039663 -1.76743,-1.601082 -0.56142,-0.561418 -1.09685,-1.154026 -1.60108,-1.767428 -0.50424,-0.613401 -0.97729,-1.252794 -1.41914,-1.91298 -0.44186,-0.660187 -0.84733,-1.341166 -1.22161,-2.042939 -0.37948,-0.701773 -0.71737,-1.419141 -1.01887,-2.157302 -0.3067,-0.732963 -0.57181,-1.48152 -0.80574,-2.245673 -0.22872,-0.758954 -0.42106,-1.528305 -0.57701,-2.308053 -0.15595,-0.779747 -0.27551,-1.564693 -0.35349,-2.360036 -0.078,-0.790144 -0.11436,-1.585487 -0.11436,-2.380829 0,-0.795343 0.0364,-1.585487 0.11436,-2.38083 0.078,-0.790144 0.19754,-1.57509 0.35349,-2.354837 0.15595,-0.779748 0.34829,-1.549099 0.57701,-2.313252 0.23393,-0.758954 0.49904,-1.507512 0.80574,-2.245673 0.3015,-0.732962 0.63939,-1.45033 1.01887,-2.152103 0.37428,-0.701773 0.77975,-1.382752 1.22161,-2.042939 0.44185,-0.660186 0.9149,-1.299579 1.41914,-1.912981 0.50423,-0.618599 1.03966,-1.206009 1.60108,-1.767427 0.56142,-0.561419 1.15402,-1.096845 1.76743,-1.601082 0.6134,-0.504237 1.25279,-0.977284 1.91298,-1.419141 0.66018,-0.441857 1.34636,-0.852524 2.04294,-1.226803 0.70177,-0.374279 1.42433,-0.712169 2.1573,-1.01887 0.73296,-0.301502 1.48152,-0.571815 2.24567,-0.800541 0.75895,-0.233924 1.52831,-0.426262 2.30805,-0.582211 0.77975,-0.15595 1.56989,-0.270313 2.36004,-0.348288 0.79014,-0.07797 1.58549,-0.119561 2.38083,-0.119561 0.79534,0 1.58549,0.04159 2.38083,0.119561 0.79014,0.07798 1.57509,0.192338 2.35484,0.348288 0.77974,0.155949 1.55429,0.348287 2.31325,0.582211 0.75895,0.228726 1.50751,0.499039 2.24567,0.800541 0.73296,0.306701 1.45033,0.644591 2.1521,1.01887 0.70178,0.374279 1.38276,0.784946 2.04294,1.226803 0.66539,0.441857 1.29958,0.914904 1.91818,1.419141 0.6134,0.504237 1.20081,1.039663 1.76223,1.601082 0.56142,0.561418 1.09685,1.148828 1.60108,1.767427 0.50424,0.613402 0.97729,1.252795 1.41914,1.912981 0.44186,0.660187 0.85253,1.341166 1.22681,2.042939 0.37427,0.701773 0.71217,1.419141 1.01887,2.152103 0.3067,0.738161 0.57181,1.486719 0.80054,2.245673 0.23392,0.764153 0.42626,1.533504 0.58221,2.313252 0.15595,0.779747 0.27031,1.564693 0.34829,2.354837 0.078,0.795343 0.11956,1.585487 0.11956,2.38083 z m 0,0"
       transform="matrix(0.751445,0,0,0.751445,0.375723,0.375723)"
       id="path58" />
  </g>
  <g
     clip-path="url(#clip-5)"
     id="g64">
    <path
       fill="none"
       stroke-width="1"
       stroke-linecap="butt"
       stroke-linejoin="miter"
       stroke="#000000"
       stroke-opacity="1"
       stroke-miterlimit="4"
       d="m 167.20292,61.708264 c 0,1.346364 -0.13516,2.677133 -0.39508,3.997506 -0.26511,1.320372 -0.64979,2.604357 -1.16442,3.846755 -0.51463,1.242397 -1.14883,2.422415 -1.89739,3.540054 -0.74335,1.122836 -1.59588,2.157301 -2.54717,3.108593 -0.95129,0.951293 -1.98576,1.798618 -3.1034,2.547176 -1.11763,0.748558 -2.30285,1.377554 -3.54525,1.892188 -1.2424,0.514633 -2.52118,0.904507 -3.84156,1.164423 -1.32037,0.265114 -2.65114,0.395072 -3.9975,0.395072 -1.34637,0 -2.67713,-0.129958 -3.99751,-0.395072 -1.32037,-0.259916 -2.60435,-0.64979 -3.84675,-1.164423 -1.2424,-0.514634 -2.42242,-1.14363 -3.54006,-1.892188 -1.11763,-0.748558 -2.1573,-1.595883 -3.10859,-2.547176 -0.95129,-0.951292 -1.79862,-1.985757 -2.54718,-3.108593 -0.74855,-1.117639 -1.37755,-2.297657 -1.89218,-3.540054 -0.51464,-1.242398 -0.90451,-2.526383 -1.16443,-3.846755 -0.26511,-1.320373 -0.39507,-2.651142 -0.39507,-3.997506 0,-1.341166 0.12996,-2.677134 0.39507,-3.997506 0.25992,-1.320373 0.64979,-2.599159 1.16443,-3.841557 0.51463,-1.242398 1.14363,-2.422416 1.89218,-3.545252 0.74856,-1.117638 1.59589,-2.152104 2.54718,-3.103396 0.95129,-0.951292 1.99096,-1.798618 3.10859,-2.547175 1.11764,-0.748558 2.29766,-1.377554 3.54006,-1.892188 1.2424,-0.519831 2.52638,-0.904507 3.84675,-1.169621 1.32038,-0.259916 2.65114,-0.395072 3.99751,-0.395072 1.34636,0 2.67713,0.135156 3.9975,0.395072 1.32038,0.265114 2.59916,0.64979 3.84156,1.169621 1.2424,0.514634 2.42762,1.14363 3.54525,1.892188 1.11764,0.748557 2.15211,1.595883 3.1034,2.547175 0.95129,0.951292 1.80382,1.985758 2.54717,3.103396 0.74856,1.122836 1.38276,2.302854 1.89739,3.545252 0.51463,1.242398 0.89931,2.521184 1.16442,3.841557 0.25992,1.320372 0.39508,2.65634 0.39508,3.997506 z m 0,0"
       transform="matrix(0.751445,0,0,0.751445,0.375723,0.375723)"
       id="path62" />
  </g>
  <g
     clip-path="url(#clip-6)"
     id="g68">
    <path
       fill="none"
       stroke-width="1"
       stroke-linecap="butt"
       stroke-linejoin="miter"
       stroke="#000000"
       stroke-opacity="1"
       stroke-miterlimit="4"
       d="m 49.575391,61.708264 c 0,0.795342 -0.03639,1.590685 -0.114363,2.380829 -0.07798,0.795343 -0.197536,1.580289 -0.353486,2.360036 -0.155949,0.779748 -0.348287,1.549099 -0.577013,2.308053 -0.233924,0.764153 -0.499038,1.51271 -0.805739,2.245673 -0.301502,0.738161 -0.639393,1.455529 -1.01887,2.157302 -0.374279,0.701773 -0.779748,1.382752 -1.221605,2.042939 -0.441857,0.660186 -0.914904,1.299579 -1.41914,1.91298 -0.504237,0.613402 -1.039664,1.20601 -1.601082,1.767428 -0.561418,0.561419 -1.154027,1.096845 -1.767428,1.601082 -0.613401,0.504237 -1.252794,0.977284 -1.912981,1.419141 -0.660186,0.441857 -1.346364,0.847325 -2.042939,1.226803 -0.701772,0.374278 -1.424338,0.712169 -2.157301,1.01887 -0.732963,0.301502 -1.481521,0.571815 -2.245673,0.800541 -0.758955,0.228726 -1.528306,0.426262 -2.308053,0.577013 -0.779748,0.155949 -1.569892,0.275511 -2.360036,0.353485 -0.790145,0.07798 -1.585487,0.114363 -2.38083,0.114363 -0.795342,0 -1.585486,-0.03639 -2.380829,-0.114363 -0.790144,-0.07797 -1.57509,-0.197536 -2.354838,-0.353485 C 19.773438,85.376203 18.998888,85.178667 18.239934,84.949941 17.48098,84.721215 16.732422,84.450902 15.994261,84.1494 15.261298,83.842699 14.54393,83.504808 13.842158,83.13053 13.140385,82.751052 12.459405,82.345584 11.799219,81.903727 11.133834,81.46187 10.49964,80.988823 9.88104,80.484586 9.267638,79.980349 8.680228,79.444923 8.11881,78.883504 7.557392,78.322086 7.021965,77.729478 6.517728,77.116076 6.013492,76.502675 5.540445,75.863282 5.098588,75.203096 4.656731,74.542909 4.246064,73.86193 3.871785,73.160157 3.497506,72.458384 3.159615,71.741016 2.852915,71.002855 2.546214,70.269892 2.2811,69.521335 2.052374,68.757182 1.81845,67.998228 1.626112,67.228877 1.470162,66.449129 1.314213,65.669382 1.19985,64.884436 1.121875,64.089093 1.0439,63.298949 1.002314,62.503606 1.002314,61.708264 c 0,-0.795343 0.041586,-1.585487 0.119561,-2.38083 0.077975,-0.790144 0.192338,-1.57509 0.348287,-2.354837 0.15595,-0.779748 0.348288,-1.549099 0.582212,-2.313252 0.228726,-0.758954 0.49384,-1.507512 0.800541,-2.245673 0.3067,-0.732962 0.644591,-1.45033 1.01887,-2.152103 0.374279,-0.701773 0.784946,-1.382752 1.226803,-2.042939 0.441857,-0.660186 0.914904,-1.299579 1.41914,-1.912981 0.504237,-0.618599 1.039664,-1.206009 1.601082,-1.767427 0.561418,-0.561419 1.148828,-1.096845 1.76223,-1.601082 0.6186,-0.504237 1.252794,-0.977284 1.918179,-1.419141 0.660186,-0.441857 1.341166,-0.852524 2.042939,-1.226803 0.701772,-0.374279 1.41914,-0.712169 2.152103,-1.01887 0.738161,-0.301502 1.486719,-0.571815 2.245673,-0.800541 0.758954,-0.233924 1.533504,-0.426262 2.313251,-0.582211 0.779748,-0.15595 1.564694,-0.270313 2.354838,-0.348288 0.795343,-0.07797 1.585487,-0.119561 2.380829,-0.119561 0.795343,0 1.590685,0.04159 2.38083,0.119561 0.790144,0.07798 1.580288,0.192338 2.360036,0.348288 0.779747,0.155949 1.549098,0.348287 2.308053,0.582211 0.764152,0.228726 1.51271,0.499039 2.245673,0.800541 0.732963,0.306701 1.455529,0.644591 2.157301,1.01887 0.696575,0.374279 1.382753,0.784946 2.042939,1.226803 0.660187,0.441857 1.29958,0.914904 1.912981,1.419141 0.613401,0.504237 1.20601,1.039663 1.767428,1.601082 0.561418,0.561418 1.096845,1.148828 1.601082,1.767427 0.504236,0.613402 0.977283,1.252795 1.41914,1.912981 0.441857,0.660187 0.847326,1.341166 1.221605,2.042939 0.379477,0.701773 0.717368,1.419141 1.01887,2.152103 0.306701,0.738161 0.571815,1.486719 0.805739,2.245673 0.228726,0.764153 0.421064,1.533504 0.577013,2.313252 0.15595,0.779747 0.275511,1.564693 0.353486,2.354837 0.07798,0.795343 0.114363,1.585487 0.114363,2.38083 z m 0,0"
       transform="matrix(0.751445,0,0,0.751445,0.375723,0.375723)"
       id="path66" />
  </g>
  <g
     clip-path="url(#clip-7)"
     id="g72">
    <path
       fill="none"
       stroke-width="1"
       stroke-linecap="butt"
       stroke-linejoin="miter"
       stroke="#000000"
       stroke-opacity="1"
       stroke-miterlimit="4"
       d="m 45.780619,61.708264 c 0,1.346364 -0.129958,2.677133 -0.395072,3.997506 -0.259916,1.320372 -0.649789,2.604357 -1.164423,3.846755 -0.514633,1.242397 -1.14363,2.422415 -1.892187,3.540054 -0.748558,1.122836 -1.595884,2.157301 -2.547176,3.108593 -0.951292,0.951293 -1.990955,1.798618 -3.108594,2.547176 -1.117638,0.748558 -2.297656,1.377554 -3.540054,1.892188 -1.242398,0.514633 -2.526382,0.904507 -3.846755,1.164423 -1.320372,0.265114 -2.651141,0.395072 -3.997506,0.395072 -1.346364,0 -2.677133,-0.129958 -3.997506,-0.395072 -1.320372,-0.259916 -2.599158,-0.64979 -3.841556,-1.164423 -1.242398,-0.514634 -2.427614,-1.14363 -3.545253,-1.892188 C 12.786899,77.99979 11.752434,77.152465 10.801142,76.201172 9.84985,75.24988 8.997326,74.215415 8.253966,73.092579 7.505409,71.97494 6.871214,70.794922 6.356581,69.552525 5.841947,68.310127 5.457272,67.026142 5.192158,65.70577 4.932242,64.385397 4.797085,63.054628 4.797085,61.708264 c 0,-1.341166 0.135157,-2.677134 0.395073,-3.997506 0.265114,-1.320373 0.649789,-2.599159 1.164423,-3.841557 0.514633,-1.242398 1.148828,-2.422416 1.897385,-3.545252 0.74336,-1.117638 1.595884,-2.152104 2.547176,-3.103396 0.951292,-0.951292 1.985757,-1.798618 3.103395,-2.547175 1.117639,-0.748558 2.302855,-1.377554 3.545253,-1.892188 1.242398,-0.519831 2.521184,-0.904507 3.841556,-1.169621 1.320373,-0.259916 2.651142,-0.395072 3.997506,-0.395072 1.346365,0 2.677134,0.135156 3.997506,0.395072 1.320373,0.265114 2.604357,0.64979 3.846755,1.169621 1.242398,0.514634 2.422416,1.14363 3.540054,1.892188 1.117639,0.748557 2.157302,1.595883 3.108594,2.547175 0.951292,0.951292 1.798618,1.985758 2.547176,3.103396 0.748557,1.122836 1.377554,2.302854 1.892187,3.545252 0.514634,1.242398 0.904507,2.521184 1.164423,3.841557 0.265114,1.320372 0.395072,2.65634 0.395072,3.997506 z m 0,0"
       transform="matrix(0.751445,0,0,0.751445,0.375723,0.375723)"
       id="path70" />
  </g>
</svg>
